<?xml version="1.0" standalone="no"?>
<!DOCTYPE svg PUBLIC "-//W3C//DTD SVG 20010904//EN"
 "http://www.w3.org/TR/2001/REC-SVG-20010904/DTD/svg10.dtd">
<svg version="1.0" xmlns="http://www.w3.org/2000/svg"
 width="176.000000pt" height="216.000000pt" viewBox="0 0 176.000000 216.000000"
 preserveAspectRatio="xMidYMid meet">

<g transform="translate(0.000000,216.000000) scale(0.100000,-0.100000)"
fill="#000000" stroke="none">
<path d="M365 1962 c-82 -1 -154 -7 -158 -11 -6 -6 12 -47 42 -99 l50 -90 47
-322 47 -322 -33 -240 c-17 -133 -37 -254 -42 -270 -19 -55 10 -138 48 -138
22 0 47 48 47 90 0 22 0 40 1 40 1 0 86 -45 190 -99 l189 -99 1 -56 c1 -43 6
-60 23 -77 42 -42 94 -3 95 71 l0 39 77 16 c42 9 113 25 159 35 77 17 84 17
88 2 11 -38 31 -67 48 -70 26 -5 55 26 62 67 3 20 13 41 21 48 9 7 13 19 10
27 -4 9 -109 65 -234 126 -125 61 -229 113 -231 115 -5 4 17 97 44 192 15 50
16 51 47 47 33 -5 434 39 443 49 6 6 84 411 84 437 0 10 -100 70 -274 165
l-274 150 -26 87 c-20 66 -32 88 -47 93 -11 4 -105 5 -207 3 -103 -1 -254 -4
-337 -6z m548 -105 c11 -32 17 -60 15 -62 -1 -1 -133 -6 -293 -10 l-290 -7
-37 64 c-21 36 -38 68 -38 72 0 3 141 5 313 4 l312 -3 18 -58z m272 -234 c159
-88 227 -130 216 -134 -9 -4 -91 -10 -181 -14 l-165 -6 -294 126 c-162 69
-300 129 -305 133 -6 4 81 9 194 12 113 3 227 7 253 8 45 2 66 -7 282 -125z
m-490 -48 c176 -75 324 -140 329 -145 8 -8 -11 -389 -19 -398 -2 -2 -108 17
-236 42 -129 25 -253 48 -276 52 -24 4 -46 12 -51 18 -5 6 -26 128 -46 271
-21 143 -40 271 -43 284 -5 18 -3 23 8 19 8 -4 158 -68 334 -143z m751 -318
c-18 -97 -36 -180 -39 -183 -7 -7 -346 -48 -351 -43 -6 7 21 379 28 386 8 8
390 30 393 23 2 -3 -12 -85 -31 -183z m-767 -212 c129 -25 237 -48 239 -50 5
-5 -48 -219 -57 -233 -6 -9 -468 -78 -475 -71 -6 6 47 399 54 399 3 0 110 -20
239 -45z m188 -364 c-8 -37 9 -97 28 -105 27 -10 45 5 58 49 l12 43 143 -68
c142 -69 169 -93 120 -105 -159 -40 -335 -72 -349 -64 -10 5 -27 9 -38 9 -20
0 -387 185 -396 200 -2 4 46 15 108 24 61 10 150 23 197 31 127 19 123 20 117
-14z"/>
</g>
</svg>
